<svg version="1.1" id="Layer_1" xmlns="http://www.w3.org/2000/svg" xmlns:xlink="http://www.w3.org/1999/xlink" x="0px" y="0px"
	 width="1000" viewBox="0 0 768 212" enable-background="new 0 0 768 212" xml:space="preserve">
<path fill="#121212" opacity="1.000000" stroke="none" 
	d="
M553.000000,213.000000 
	C368.666687,213.000000 184.833374,213.000000 1.000049,213.000000 
	C1.000033,142.333359 1.000033,71.666725 1.000016,1.000068 
	C256.999939,1.000046 512.999878,1.000046 768.999878,1.000023 
	C768.999878,71.666595 768.999878,142.333191 768.999939,212.999893 
	C697.166687,213.000000 625.333313,213.000000 553.000000,213.000000 
M399.013397,56.560097 
	C399.013397,54.111454 399.013397,51.662811 399.013397,48.713402 
	C391.064270,49.435776 383.679749,50.106842 376.126251,50.793262 
	C376.126251,89.059288 376.126251,126.965302 376.126251,165.056030 
	C383.329742,165.056030 390.384674,165.056030 398.086121,165.056030 
	C398.086121,161.768768 398.086121,158.823410 398.086121,155.034286 
	C411.080536,173.170166 438.748291,170.084061 447.665344,150.401718 
	C452.800659,139.066742 452.792328,127.109581 450.953278,115.124878 
	C449.094360,103.010452 443.528351,93.159019 431.225677,89.225807 
	C419.108368,85.351860 407.932220,86.985977 399.013397,98.755455 
	C399.013397,84.332520 399.013397,70.937958 399.013397,56.560097 
M689.159424,150.298721 
	C685.030518,143.856308 681.071472,137.295471 676.698669,131.023102 
	C674.614502,128.033661 674.370728,125.900246 676.519409,122.697807 
	C683.097168,112.894341 689.249512,102.805016 695.537048,92.807869 
	C696.189453,91.770561 696.640076,90.606354 697.403442,89.055885 
	C690.470642,89.055885 684.155884,89.278259 677.867493,88.968002 
	C674.394714,88.796661 672.559021,90.100540 670.828613,92.974770 
	C664.608276,103.306679 658.111511,113.472145 651.719238,123.700523 
	C651.385803,123.627747 651.052429,123.554962 650.719055,123.482178 
	C650.719055,98.694397 650.719055,73.906616 650.719055,48.694656 
	C642.642212,49.437340 635.243286,50.117683 627.851929,50.797337 
	C627.851929,89.170845 627.851929,127.044136 627.851929,165.092209 
	C635.571655,165.092209 642.978210,165.092209 650.583069,165.092209 
	C650.583069,153.223267 650.583069,141.673203 650.583069,128.821335 
	C652.212097,131.017303 653.307251,132.322342 654.216003,133.746262 
	C660.211304,143.140411 666.114197,152.594177 672.191528,161.934647 
	C673.096375,163.325333 674.719543,165.134583 676.079651,165.195190 
	C683.336121,165.518555 690.614624,165.347534 698.776123,165.347534 
	C695.390869,160.017181 692.490234,155.449905 689.159424,150.298721 
M203.041809,165.404999 
	C209.154617,165.404999 215.267426,165.404999 221.471008,165.404999 
	C221.471008,139.644913 221.471008,114.580811 221.471008,89.282898 
	C214.140350,89.282898 207.071075,89.282898 199.723419,89.282898 
	C199.542770,92.466293 199.370422,95.503220 199.265045,97.359917 
	C194.749298,94.487701 190.368896,90.372826 185.193710,88.661682 
	C170.292908,83.734840 154.458542,91.856300 149.368500,106.712128 
	C144.821030,119.984383 144.807983,133.616501 149.097733,146.939148 
	C153.601105,160.925217 165.882904,168.422531 180.468292,166.925034 
	C188.201828,166.131027 194.480835,162.746078 199.032440,156.037766 
	C199.450836,158.422379 199.132721,160.471970 199.568161,162.346527 
	C199.836533,163.501968 201.254456,164.390381 203.041809,165.404999 
M531.936523,147.252335 
	C533.054810,139.916214 535.079224,132.585724 535.124878,125.242935 
	C535.273132,101.360435 522.094238,88.209091 498.246857,87.483398 
	C477.822968,86.861893 463.811951,97.333389 460.318420,116.199593 
	C459.507843,120.576927 459.578064,125.150787 459.559021,129.635574 
	C459.468292,150.989243 471.028931,164.159348 492.026398,166.782990 
	C509.761261,168.998947 524.371460,162.048035 531.936523,147.252335 
M618.316528,117.338058 
	C616.230225,111.972900 615.061035,105.978409 611.890198,101.357468 
	C601.255066,85.858734 573.512268,82.943916 556.760010,94.274437 
	C539.160217,106.178200 540.183350,140.842316 549.838196,153.109940 
	C560.315552,166.422714 574.440552,168.454193 589.869446,166.192657 
	C605.167419,163.950272 615.739807,153.761902 617.947571,138.573868 
	C618.917969,131.897797 618.363342,125.000046 618.316528,117.338058 
M357.479126,135.180664 
	C360.259216,135.180664 363.039307,135.180664 366.151184,135.180664 
	C366.151184,129.893738 366.260712,125.103561 366.132263,120.319778 
	C365.571869,99.448509 353.645416,87.705574 332.806030,87.507095 
	C329.983673,87.480209 327.138000,87.656349 324.337006,88.008102 
	C308.156586,90.039993 297.578156,99.706490 295.463196,115.687775 
	C294.447662,123.361603 294.448120,131.406372 295.516571,139.070099 
	C297.718292,154.862335 307.182495,164.070770 323.151031,165.979156 
	C331.314789,166.954788 339.730560,166.590454 347.963501,165.948135 
	C353.445831,165.520386 358.806396,163.532074 364.571655,162.158798 
	C362.959290,156.110107 361.617615,151.076904 360.665619,147.505539 
	C350.142761,148.383438 340.468597,149.781326 330.788788,149.821487 
	C322.194458,149.857178 317.319550,143.414047 318.611359,135.180603 
	C331.200195,135.180603 343.840881,135.180603 357.479126,135.180664 
M102.385956,148.496155 
	C102.385956,153.946365 102.385956,159.396576 102.385956,165.068573 
	C110.330582,165.068573 117.724297,165.068573 125.605545,165.068573 
	C125.605545,145.987152 125.605545,127.241165 125.605545,107.929947 
	C131.657547,107.929947 137.235184,107.929947 142.821579,107.929947 
	C143.472168,101.448013 144.066116,95.530434 144.725845,88.957428 
	C138.086746,88.957428 131.877686,88.957428 125.747719,88.957428 
	C125.747719,83.842270 125.539734,79.335335 125.802170,74.855949 
	C126.106728,69.657463 128.518646,67.393570 133.731598,67.134171 
	C137.348373,66.954201 140.981323,67.099556 144.819885,67.099556 
	C144.819885,60.936424 144.819885,55.210243 144.819885,49.189034 
	C140.108109,48.926731 135.640442,48.376564 131.188263,48.481819 
	C110.803040,48.963749 102.571877,57.441303 102.431007,77.828362 
	C102.406044,81.440689 102.427460,85.053337 102.427460,89.155289 
	C97.050255,89.155289 92.137947,89.155289 87.335815,89.155289 
	C87.335815,95.727989 87.335815,101.788681 87.335815,108.214798 
	C92.475601,108.214798 97.251816,108.214798 102.386299,108.214798 
	C102.386299,121.560326 102.386299,134.528870 102.385956,148.496155 
M255.673843,89.020340 
	C251.212723,91.158958 246.424698,92.806793 242.347794,95.522270 
	C225.856049,106.506897 226.090073,147.819824 242.133850,158.888763 
	C256.875580,169.059402 272.586548,168.993668 288.771576,163.386124 
	C289.842926,163.014923 291.105835,160.554718 290.833405,159.410507 
	C289.737732,154.808563 288.073151,150.342056 286.621735,145.834656 
	C271.712738,150.660950 262.416229,149.837662 257.221527,143.429474 
	C252.288620,137.344208 251.173264,119.881691 256.168976,112.846230 
	C264.480072,101.141693 275.824860,105.975548 286.798737,108.431473 
	C288.456726,103.068001 290.092621,97.775963 291.764923,92.366158 
	C279.932404,86.704033 268.335571,86.566826 255.673843,89.020340 
z"/>
<path fill="#FBFBFB" opacity="1.000000" stroke="none" 
	d="
M399.013397,57.051750 
	C399.013397,70.937958 399.013397,84.332520 399.013397,98.755455 
	C407.932220,86.985977 419.108368,85.351860 431.225677,89.225807 
	C443.528351,93.159019 449.094360,103.010452 450.953278,115.124878 
	C452.792328,127.109581 452.800659,139.066742 447.665344,150.401718 
	C438.748291,170.084061 411.080536,173.170166 398.086121,155.034286 
	C398.086121,158.823410 398.086121,161.768768 398.086121,165.056030 
	C390.384674,165.056030 383.329742,165.056030 376.126251,165.056030 
	C376.126251,126.965302 376.126251,89.059288 376.126251,50.793262 
	C383.679749,50.106842 391.064270,49.435776 399.013397,48.713402 
	C399.013397,51.662811 399.013397,54.111454 399.013397,57.051750 
M420.146271,106.877953 
	C409.277313,103.507294 401.251770,107.234604 399.737030,117.588524 
	C398.722626,124.522308 399.241302,131.853333 400.210907,138.849030 
	C400.970123,144.326584 405.119659,147.850647 410.845642,148.648727 
	C416.402924,149.423279 421.511749,148.431427 425.135345,143.622650 
	C430.353638,136.697647 430.486908,118.150764 425.277893,111.148384 
	C424.125092,109.598717 422.359467,108.504959 420.146271,106.877953 
z"/>
<path fill="#FAFAFA" opacity="1.000000" stroke="none" 
	d="
M689.374512,150.590668 
	C692.490234,155.449905 695.390869,160.017181 698.776123,165.347534 
	C690.614624,165.347534 683.336121,165.518555 676.079651,165.195190 
	C674.719543,165.134583 673.096375,163.325333 672.191528,161.934647 
	C666.114197,152.594177 660.211304,143.140411 654.216003,133.746262 
	C653.307251,132.322342 652.212097,131.017303 650.583069,128.821335 
	C650.583069,141.673203 650.583069,153.223267 650.583069,165.092209 
	C642.978210,165.092209 635.571655,165.092209 627.851929,165.092209 
	C627.851929,127.044136 627.851929,89.170845 627.851929,50.797337 
	C635.243286,50.117683 642.642212,49.437340 650.719055,48.694656 
	C650.719055,73.906616 650.719055,98.694397 650.719055,123.482178 
	C651.052429,123.554962 651.385803,123.627747 651.719238,123.700523 
	C658.111511,113.472145 664.608276,103.306679 670.828613,92.974770 
	C672.559021,90.100540 674.394714,88.796661 677.867493,88.968002 
	C684.155884,89.278259 690.470642,89.055885 697.403442,89.055885 
	C696.640076,90.606354 696.189453,91.770561 695.537048,92.807869 
	C689.249512,102.805016 683.097168,112.894341 676.519409,122.697807 
	C674.370728,125.900246 674.614502,128.033661 676.698669,131.023102 
	C681.071472,137.295471 685.030518,143.856308 689.374512,150.590668 
z"/>
<path fill="#F9F9F9" opacity="1.000000" stroke="none" 
	d="
M202.599030,165.401840 
	C201.254456,164.390381 199.836533,163.501968 199.568161,162.346527 
	C199.132721,160.471970 199.450836,158.422379 199.032440,156.037766 
	C194.480835,162.746078 188.201828,166.131027 180.468292,166.925034 
	C165.882904,168.422531 153.601105,160.925217 149.097733,146.939148 
	C144.807983,133.616501 144.821030,119.984383 149.368500,106.712128 
	C154.458542,91.856300 170.292908,83.734840 185.193710,88.661682 
	C190.368896,90.372826 194.749298,94.487701 199.265045,97.359917 
	C199.370422,95.503220 199.542770,92.466293 199.723419,89.282898 
	C207.071075,89.282898 214.140350,89.282898 221.471008,89.282898 
	C221.471008,114.580811 221.471008,139.644913 221.471008,165.404999 
	C215.267426,165.404999 209.154617,165.404999 202.599030,165.401840 
M177.089523,107.151421 
	C172.752563,109.491920 170.431808,113.414246 170.085419,118.037582 
	C169.628464,124.136520 169.395920,130.363327 170.109711,136.412094 
	C171.103653,144.835052 176.658600,149.085266 184.824371,148.848083 
	C192.210236,148.633545 197.244507,143.999985 198.080597,135.900604 
	C198.608276,130.788925 198.700470,125.563660 198.314636,120.440048 
	C197.401535,108.315002 189.533249,103.236565 177.089523,107.151421 
z"/>
<path fill="#FAFAFA" opacity="1.000000" stroke="none" 
	d="
M531.777771,147.599365 
	C524.371460,162.048035 509.761261,168.998947 492.026398,166.782990 
	C471.028931,164.159348 459.468292,150.989243 459.559021,129.635574 
	C459.578064,125.150787 459.507843,120.576927 460.318420,116.199593 
	C463.811951,97.333389 477.822968,86.861893 498.246857,87.483398 
	C522.094238,88.209091 535.273132,101.360435 535.124878,125.242935 
	C535.079224,132.585724 533.054810,139.916214 531.777771,147.599365 
M487.919312,145.698425 
	C497.297638,151.716766 508.593353,149.260635 510.642120,139.500519 
	C512.324951,131.483582 511.654694,122.706345 510.547882,114.464790 
	C509.822113,109.060364 504.914093,106.139977 499.122345,105.774719 
	C493.231415,105.403198 487.483063,106.542061 485.267944,112.395241 
	C481.089661,123.435707 480.143066,134.676254 487.919312,145.698425 
z"/>
<path fill="#FBFBFB" opacity="1.000000" stroke="none" 
	d="
M618.408813,117.770500 
	C618.363342,125.000046 618.917969,131.897797 617.947571,138.573868 
	C615.739807,153.761902 605.167419,163.950272 589.869446,166.192657 
	C574.440552,168.454193 560.315552,166.422714 549.838196,153.109940 
	C540.183350,140.842316 539.160217,106.178200 556.760010,94.274437 
	C573.512268,82.943916 601.255066,85.858734 611.890198,101.357468 
	C615.061035,105.978409 616.230225,111.972900 618.408813,117.770500 
M595.967041,127.478271 
	C595.576233,123.526520 595.664368,119.451950 594.689575,115.649925 
	C592.944275,108.843407 587.899780,105.616890 580.479919,105.748947 
	C573.636963,105.870735 568.168152,109.511856 567.257080,116.200493 
	C566.328857,123.014946 566.199097,130.115753 566.998840,136.941269 
	C567.919006,144.793381 573.150940,148.725693 580.568054,148.874924 
	C588.308411,149.030655 593.388611,145.144150 595.128662,137.327881 
	C595.771240,134.441513 595.707092,131.397842 595.967041,127.478271 
z"/>
<path fill="#FAFAFA" opacity="1.000000" stroke="none" 
	d="
M356.980347,135.180634 
	C343.840881,135.180603 331.200195,135.180603 318.611359,135.180603 
	C317.319550,143.414047 322.194458,149.857178 330.788788,149.821487 
	C340.468597,149.781326 350.142761,148.383438 360.665619,147.505539 
	C361.617615,151.076904 362.959290,156.110107 364.571655,162.158798 
	C358.806396,163.532074 353.445831,165.520386 347.963501,165.948135 
	C339.730560,166.590454 331.314789,166.954788 323.151031,165.979156 
	C307.182495,164.070770 297.718292,154.862335 295.516571,139.070099 
	C294.448120,131.406372 294.447662,123.361603 295.463196,115.687775 
	C297.578156,99.706490 308.156586,90.039993 324.337006,88.008102 
	C327.138000,87.656349 329.983673,87.480209 332.806030,87.507095 
	C353.645416,87.705574 365.571869,99.448509 366.132263,120.319778 
	C366.260712,125.103561 366.151184,129.893738 366.151184,135.180664 
	C363.039307,135.180664 360.259216,135.180664 356.980347,135.180634 
M318.786255,120.073036 
	C327.694366,120.073036 336.602478,120.073036 345.448853,120.073036 
	C346.234985,107.368172 338.868408,101.042007 327.480072,103.925613 
	C321.150604,105.528282 318.022247,110.693016 318.786255,120.073036 
z"/>
<path fill="#F9F9F9" opacity="1.000000" stroke="none" 
	d="
M102.386124,147.996796 
	C102.386299,134.528870 102.386299,121.560326 102.386299,108.214798 
	C97.251816,108.214798 92.475601,108.214798 87.335815,108.214798 
	C87.335815,101.788681 87.335815,95.727989 87.335815,89.155289 
	C92.137947,89.155289 97.050255,89.155289 102.427460,89.155289 
	C102.427460,85.053337 102.406044,81.440689 102.431007,77.828362 
	C102.571877,57.441303 110.803040,48.963749 131.188263,48.481819 
	C135.640442,48.376564 140.108109,48.926731 144.819885,49.189034 
	C144.819885,55.210243 144.819885,60.936424 144.819885,67.099556 
	C140.981323,67.099556 137.348373,66.954201 133.731598,67.134171 
	C128.518646,67.393570 126.106728,69.657463 125.802170,74.855949 
	C125.539734,79.335335 125.747719,83.842270 125.747719,88.957428 
	C131.877686,88.957428 138.086746,88.957428 144.725845,88.957428 
	C144.066116,95.530434 143.472168,101.448013 142.821579,107.929947 
	C137.235184,107.929947 131.657547,107.929947 125.605545,107.929947 
	C125.605545,127.241165 125.605545,145.987152 125.605545,165.068573 
	C117.724297,165.068573 110.330582,165.068573 102.385956,165.068573 
	C102.385956,159.396576 102.385956,153.946365 102.386124,147.996796 
z"/>
<path fill="#FAFAFA" opacity="1.000000" stroke="none" 
	d="
M256.085388,88.965355 
	C268.335571,86.566826 279.932404,86.704033 291.764923,92.366158 
	C290.092621,97.775963 288.456726,103.068001 286.798737,108.431473 
	C275.824860,105.975548 264.480072,101.141693 256.168976,112.846230 
	C251.173264,119.881691 252.288620,137.344208 257.221527,143.429474 
	C262.416229,149.837662 271.712738,150.660950 286.621735,145.834656 
	C288.073151,150.342056 289.737732,154.808563 290.833405,159.410507 
	C291.105835,160.554718 289.842926,163.014923 288.771576,163.386124 
	C272.586548,168.993668 256.875580,169.059402 242.133850,158.888763 
	C226.090073,147.819824 225.856049,106.506897 242.347794,95.522270 
	C246.424698,92.806793 251.212723,91.158958 256.085388,88.965355 
z"/>
<path fill="#202020" opacity="1.000000" stroke="none" 
	d="
M420.511139,107.039612 
	C422.359467,108.504959 424.125092,109.598717 425.277893,111.148384 
	C430.486908,118.150764 430.353638,136.697647 425.135345,143.622650 
	C421.511749,148.431427 416.402924,149.423279 410.845642,148.648727 
	C405.119659,147.850647 400.970123,144.326584 400.210907,138.849030 
	C399.241302,131.853333 398.722626,124.522308 399.737030,117.588524 
	C401.251770,107.234604 409.277313,103.507294 420.511139,107.039612 
z"/>
<path fill="#212121" opacity="1.000000" stroke="none" 
	d="
M177.466034,107.005249 
	C189.533249,103.236565 197.401535,108.315002 198.314636,120.440048 
	C198.700470,125.563660 198.608276,130.788925 198.080597,135.900604 
	C197.244507,143.999985 192.210236,148.633545 184.824371,148.848083 
	C176.658600,149.085266 171.103653,144.835052 170.109711,136.412094 
	C169.395920,130.363327 169.628464,124.136520 170.085419,118.037582 
	C170.431808,113.414246 172.752563,109.491920 177.466034,107.005249 
z"/>
<path fill="#1F1F1F" opacity="1.000000" stroke="none" 
	d="
M487.643555,145.438797 
	C480.143066,134.676254 481.089661,123.435707 485.267944,112.395241 
	C487.483063,106.542061 493.231415,105.403198 499.122345,105.774719 
	C504.914093,106.139977 509.822113,109.060364 510.547882,114.464790 
	C511.654694,122.706345 512.324951,131.483582 510.642120,139.500519 
	C508.593353,149.260635 497.297638,151.716766 487.643555,145.438797 
z"/>
<path fill="#202020" opacity="1.000000" stroke="none" 
	d="
M595.966187,127.952087 
	C595.707092,131.397842 595.771240,134.441513 595.128662,137.327881 
	C593.388611,145.144150 588.308411,149.030655 580.568054,148.874924 
	C573.150940,148.725693 567.919006,144.793381 566.998840,136.941269 
	C566.199097,130.115753 566.328857,123.014946 567.257080,116.200493 
	C568.168152,109.511856 573.636963,105.870735 580.479919,105.748947 
	C587.899780,105.616890 592.944275,108.843407 594.689575,115.649925 
	C595.664368,119.451950 595.576233,123.526520 595.966187,127.952087 
z"/>
<path fill="#212121" opacity="1.000000" stroke="none" 
	d="
M318.402283,119.809776 
	C318.022247,110.693016 321.150604,105.528282 327.480072,103.925613 
	C338.868408,101.042007 346.234985,107.368172 345.448853,120.073036 
	C336.602478,120.073036 327.694366,120.073036 318.402283,119.809776 
z"/>
</svg>